<svg width="23" height="21" viewBox="0 0 23 21" fill="none" xmlns="http://www.w3.org/2000/svg">
<path fill-rule="evenodd" clip-rule="evenodd" d="M14.3082 0.0410156H16.3156C18.2081 0.0410156 19.1544 0.0410156 19.7423 0.628946C20.3302 1.21688 20.3302 2.16314 20.3302 4.05566V19.3615H21.3339C21.7496 19.3615 22.0867 19.6985 22.0867 20.1142C22.0867 20.5299 21.7496 20.867 21.3339 20.867H1.26056C0.84483 20.867 0.507813 20.5299 0.507812 20.1142C0.507812 19.6985 0.84483 19.3615 1.26056 19.3615H2.26423V7.06663C2.26423 5.17412 2.26423 4.22786 2.85216 3.63993C3.4401 3.05199 4.38637 3.052 6.2789 3.052H10.2936C12.1861 3.052 13.1324 3.05199 13.7203 3.63993C14.3082 4.22786 14.3082 5.17412 14.3082 7.06663V19.3615H15.8137V7.06663L15.8137 6.97682C15.8138 6.10802 15.8139 5.31144 15.7268 4.66346C15.6309 3.94989 15.4052 3.19569 14.7848 2.57538C14.1645 1.95507 13.4103 1.72936 12.6968 1.63342C12.0579 1.54753 11.2746 1.54641 10.42 1.54649C10.5046 1.15783 10.6458 0.864605 10.8815 0.628946C11.4694 0.0410156 12.4157 0.0410156 14.3082 0.0410156ZM4.52248 6.06297C4.52248 5.64724 4.8595 5.31023 5.27523 5.31023H11.2972C11.713 5.31023 12.05 5.64724 12.05 6.06297C12.05 6.4787 11.713 6.81572 11.2972 6.81572H5.27523C4.8595 6.81572 4.52248 6.4787 4.52248 6.06297ZM4.52248 9.07395C4.52248 8.65822 4.8595 8.32121 5.27523 8.32121H11.2972C11.713 8.32121 12.05 8.65822 12.05 9.07395C12.05 9.48968 11.713 9.8267 11.2972 9.8267H5.27523C4.8595 9.8267 4.52248 9.48968 4.52248 9.07395ZM4.52248 12.0849C4.52248 11.6692 4.8595 11.3322 5.27523 11.3322H11.2972C11.713 11.3322 12.05 11.6692 12.05 12.0849C12.05 12.5007 11.713 12.8377 11.2972 12.8377H5.27523C4.8595 12.8377 4.52248 12.5007 4.52248 12.0849ZM8.28623 16.3505C8.70196 16.3505 9.03898 16.6875 9.03898 17.1032V19.3615H7.53348V17.1032C7.53348 16.6875 7.8705 16.3505 8.28623 16.3505Z" fill="#F70D1A"/>
</svg>
