<svg width="300" height="200" viewBox="0 0 300 200" fill="none" xmlns="http://www.w3.org/2000/svg">
<circle cx="150.001" cy="80" r="72.7273" fill="#EAECF0"/>
<circle cx="73.636" cy="25.4546" r="7.27273" fill="#F2F4F7"/>
<circle cx="230.001" cy="121.818" r="5.45455" fill="#F2F4F7"/>
<circle cx="72.7276" cy="132.727" r="9.09091" fill="#F2F4F7"/>
<circle cx="240.907" cy="49.0909" r="9.09091" fill="#F2F4F7"/>
<circle cx="223.637" cy="17.2728" r="6.36364" fill="#F2F4F7"/>
<g filter="url(#filter0_dd_4896_5631)">
<path d="M149.998 49.9572L156.282 47.3253L149.999 50.0018V124.938L207.898 100.676V25.7061L208.18 25.5878L207.898 25.4627V25.3368L207.753 25.3985L150.455 0L91.8164 24.9786L92.094 25.0978L91.8164 99.7632L149.998 124.894L149.998 49.9572Z" fill="#F9FAFB"/>
<path d="M149.998 49.9574V124.894L91.8164 99.7633L92.094 25.0979L149.998 49.9574Z" fill="url(#paint0_linear_4896_5631)"/>
<path d="M150 50.0019V124.938L207.899 100.676V25.3369L150 50.0019Z" fill="url(#paint1_linear_4896_5631)"/>
<path d="M149.998 49.9572L208.18 25.5878L150.455 0L91.8164 24.9786L149.998 49.9572Z" fill="#F2F4F7"/>
<path d="M113.75 15.6362L171.71 40.8639L172.236 59.2482L188.453 52.5569L187.963 34.0566L128.288 9.44336L113.75 15.6362Z" fill="#EAECF0"/>
</g>
<g filter="url(#filter1_b_4896_5631)">
<rect x="124.547" y="94.5454" width="50.9091" height="50.9091" rx="25.4545" fill="#344054" fill-opacity="0.4"/>
<rect x="124.547" y="94.5454" width="50.9091" height="50.9091" rx="25.4545" fill="#F70D1A"/>
<g clip-path="url(#clip0_4896_5631)">
<path d="M154.243 124.243L150 120M150 120L145.758 124.243M150 120V129.546M158.899 126.777C159.933 126.213 160.751 125.321 161.222 124.241C161.692 123.161 161.79 121.955 161.5 120.813C161.209 119.671 160.547 118.659 159.617 117.936C158.687 117.212 157.542 116.819 156.364 116.818H155.028C154.707 115.577 154.108 114.424 153.278 113.447C152.447 112.469 151.406 111.693 150.232 111.177C149.058 110.66 147.782 110.416 146.501 110.463C145.219 110.51 143.965 110.847 142.832 111.449C141.699 112.051 140.718 112.902 139.961 113.937C139.205 114.973 138.693 116.167 138.464 117.429C138.235 118.691 138.296 119.988 138.641 121.223C138.985 122.459 139.606 123.6 140.455 124.561" stroke="white" stroke-width="2.12121" stroke-linecap="round" stroke-linejoin="round"/>
</g>
</g>
<path d="M50.7941 193.727H48.4113V179.723H50.8137L57.6105 189.811C57.5845 189.316 57.5715 188.708 57.5715 187.985V179.723H59.9543V193.727H57.5715L50.7551 183.649C50.7811 184.144 50.7941 184.749 50.7941 185.466V193.727ZM67.4716 194.01C65.9351 194.01 64.6721 193.509 63.6825 192.507C62.6929 191.504 62.1981 190.264 62.1981 188.786C62.1981 187.308 62.6929 186.071 63.6825 185.075C64.6721 184.072 65.9351 183.571 67.4716 183.571C69.021 183.571 70.2906 184.072 71.2802 185.075C72.2763 186.071 72.7743 187.308 72.7743 188.786C72.7743 190.264 72.2763 191.504 71.2802 192.507C70.2906 193.509 69.021 194.01 67.4716 194.01ZM65.3427 191.042C65.9091 191.608 66.6187 191.891 67.4716 191.891C68.3244 191.891 69.0373 191.608 69.6102 191.042C70.1832 190.469 70.4696 189.717 70.4696 188.786C70.4696 187.855 70.1832 187.106 69.6102 186.54C69.0373 185.973 68.3244 185.69 67.4716 185.69C66.6187 185.69 65.9091 185.973 65.3427 186.54C64.7763 187.106 64.493 187.855 64.493 188.786C64.493 189.717 64.7763 190.469 65.3427 191.042ZM82.008 193.727H79.5862V179.723H84.6448C86.0185 179.723 87.1415 180.114 88.0139 180.895C88.8863 181.677 89.3225 182.741 89.3225 184.089C89.3225 185.449 88.8863 186.517 88.0139 187.292C87.1415 188.06 86.0185 188.444 84.6448 188.444H82.008V193.727ZM82.008 181.872V186.325H84.5276C85.2567 186.325 85.8362 186.13 86.2659 185.739C86.6955 185.348 86.9104 184.798 86.9104 184.089C86.9104 183.392 86.6955 182.848 86.2659 182.458C85.8362 182.067 85.2567 181.872 84.5276 181.872H82.008ZM95.4335 194.01C94.5155 194.01 93.6822 193.779 92.9335 193.317C92.1913 192.855 91.6086 192.227 91.1855 191.432C90.7688 190.632 90.5605 189.749 90.5605 188.786C90.5605 187.829 90.7753 186.95 91.205 186.149C91.6412 185.348 92.2369 184.72 92.9921 184.264C93.7473 183.802 94.5807 183.571 95.4921 183.571C96.2343 183.571 96.8886 183.695 97.455 183.942C98.0279 184.19 98.4934 184.525 98.8515 184.948V183.844H101V193.727H98.8515V192.311C98.0833 193.444 96.9439 194.01 95.4335 194.01ZM95.8534 191.891C96.6868 191.891 97.3932 191.605 97.9726 191.032C98.5585 190.453 98.8515 189.704 98.8515 188.786C98.8515 187.868 98.5585 187.122 97.9726 186.55C97.3932 185.977 96.6868 185.69 95.8534 185.69C95.0006 185.69 94.2877 185.977 93.7148 186.55C93.1419 187.116 92.8554 187.861 92.8554 188.786C92.8554 189.71 93.1419 190.459 93.7148 191.032C94.2942 191.605 95.0071 191.891 95.8534 191.891ZM107.043 194.01C105.929 194.01 105.018 193.688 104.308 193.044C103.599 192.393 103.244 191.546 103.244 190.505H105.539C105.539 190.954 105.675 191.322 105.949 191.608C106.229 191.888 106.6 192.028 107.062 192.028C107.498 192.028 107.85 191.924 108.117 191.716C108.384 191.507 108.517 191.231 108.517 190.885C108.517 190.553 108.403 190.29 108.175 190.094C107.948 189.899 107.57 189.723 107.043 189.567L105.656 189.167C104.972 188.971 104.429 188.643 104.025 188.18C103.621 187.718 103.42 187.149 103.42 186.471C103.42 185.606 103.761 184.906 104.445 184.372C105.135 183.838 105.981 183.571 106.984 183.571C108.052 183.571 108.898 183.854 109.523 184.421C110.148 184.987 110.461 185.716 110.461 186.608H108.302C108.302 186.283 108.175 186.006 107.921 185.778C107.674 185.544 107.362 185.427 106.984 185.427C106.6 185.427 106.281 185.514 106.027 185.69C105.78 185.866 105.656 186.091 105.656 186.364C105.656 186.644 105.763 186.875 105.978 187.057C106.193 187.233 106.541 187.389 107.023 187.526L108.459 187.946C109.168 188.148 109.728 188.477 110.138 188.932C110.555 189.382 110.763 189.961 110.763 190.671C110.763 191.615 110.415 192.409 109.718 193.053C109.028 193.691 108.136 194.01 107.043 194.01ZM118.144 183.844V185.749H115.829V190.407C115.829 191.208 116.23 191.608 117.031 191.608H118.144V193.727H116.347C115.488 193.727 114.801 193.46 114.286 192.927C113.779 192.393 113.525 191.667 113.525 190.749V185.749H112.089V183.844H113.525V181.325H115.829V183.844H118.144ZM127.514 193.727H125.092V179.723H130.151C131.525 179.723 132.648 180.114 133.52 180.895C134.393 181.677 134.829 182.741 134.829 184.089C134.829 185.449 134.393 186.517 133.52 187.292C132.648 188.06 131.525 188.444 130.151 188.444H127.514V193.727ZM127.514 181.872V186.325H130.034C130.763 186.325 131.342 186.13 131.772 185.739C132.202 185.348 132.417 184.798 132.417 184.089C132.417 183.392 132.202 182.848 131.772 182.458C131.342 182.067 130.763 181.872 130.034 181.872H127.514ZM141.076 183.844H142.571V186.003H140.871C139.817 186.003 139.289 186.53 139.289 187.585V193.727H136.994V183.844H139.133V185.485C139.237 184.932 139.465 184.522 139.817 184.255C140.168 183.981 140.588 183.844 141.076 183.844ZM148.965 194.01C147.428 194.01 146.165 193.509 145.176 192.507C144.186 191.504 143.691 190.264 143.691 188.786C143.691 187.308 144.186 186.071 145.176 185.075C146.165 184.072 147.428 183.571 148.965 183.571C150.514 183.571 151.784 184.072 152.773 185.075C153.77 186.071 154.268 187.308 154.268 188.786C154.268 190.264 153.77 191.504 152.773 192.507C151.784 193.509 150.514 194.01 148.965 194.01ZM146.836 191.042C147.402 191.608 148.112 191.891 148.965 191.891C149.818 191.891 150.531 191.608 151.104 191.042C151.676 190.469 151.963 189.717 151.963 188.786C151.963 187.855 151.676 187.106 151.104 186.54C150.531 185.973 149.818 185.69 148.965 185.69C148.112 185.69 147.402 185.973 146.836 186.54C146.27 187.106 145.986 187.855 145.986 188.786C145.986 189.717 146.27 190.469 146.836 191.042ZM157.605 182.409C157.175 182.409 156.811 182.262 156.511 181.969C156.212 181.67 156.062 181.309 156.062 180.885C156.062 180.456 156.212 180.091 156.511 179.792C156.811 179.492 157.175 179.343 157.605 179.343C158.028 179.343 158.386 179.492 158.679 179.792C158.972 180.091 159.119 180.456 159.119 180.885C159.119 181.309 158.969 181.67 158.67 181.969C158.377 182.262 158.022 182.409 157.605 182.409ZM155.906 197.731H154.607V195.632H155.261C156.049 195.632 156.443 195.231 156.443 194.43V183.844H158.738V194.743C158.738 195.667 158.484 196.397 157.976 196.93C157.468 197.464 156.778 197.731 155.906 197.731ZM170.923 188.805V189.264H163.208C163.247 190.111 163.534 190.791 164.068 191.305C164.602 191.813 165.249 192.067 166.011 192.067C166.675 192.067 167.235 191.908 167.691 191.589C168.147 191.27 168.452 190.843 168.609 190.309H170.806C170.546 191.455 169.995 192.36 169.156 193.024C168.322 193.682 167.274 194.01 166.011 194.01C164.52 194.01 163.303 193.516 162.359 192.526C161.421 191.537 160.952 190.29 160.952 188.786C160.952 187.79 161.177 186.891 161.626 186.091C162.082 185.29 162.691 184.671 163.452 184.235C164.221 183.792 165.067 183.571 165.992 183.571C167.522 183.571 168.726 184.03 169.605 184.948C170.484 185.866 170.923 187.152 170.923 188.805ZM166.011 185.387C165.367 185.387 164.803 185.576 164.322 185.954C163.84 186.331 163.514 186.849 163.345 187.507H168.765C168.628 186.856 168.322 186.341 167.847 185.964C167.372 185.58 166.76 185.387 166.011 185.387ZM177.757 194.01C176.266 194.01 175.036 193.512 174.065 192.516C173.102 191.514 172.62 190.27 172.62 188.786C172.62 187.302 173.105 186.061 174.075 185.065C175.045 184.069 176.273 183.571 177.757 183.571C179.17 183.571 180.299 183.913 181.146 184.596C181.992 185.28 182.503 186.198 182.679 187.35H180.315C180.146 186.849 179.843 186.449 179.407 186.149C178.971 185.843 178.421 185.69 177.757 185.69C176.969 185.69 176.299 185.977 175.745 186.55C175.192 187.116 174.915 187.861 174.915 188.786C174.915 189.71 175.192 190.459 175.745 191.032C176.299 191.605 176.969 191.891 177.757 191.891C179.046 191.891 179.899 191.338 180.315 190.231H182.679C182.431 191.416 181.891 192.344 181.058 193.014C180.231 193.678 179.131 194.01 177.757 194.01ZM189.962 183.844V185.749H187.647V190.407C187.647 191.208 188.048 191.608 188.848 191.608H189.962V193.727H188.165C187.305 193.727 186.619 193.46 186.104 192.927C185.596 192.393 185.342 191.667 185.342 190.749V185.749H183.907V183.844H185.342V181.325H187.647V183.844H189.962ZM199.332 193.727H196.91V179.723H205.309V181.95H199.332V185.905H204.313V188.112H199.332V193.727ZM211.595 194.01C210.059 194.01 208.796 193.509 207.806 192.507C206.817 191.504 206.322 190.264 206.322 188.786C206.322 187.308 206.817 186.071 207.806 185.075C208.796 184.072 210.059 183.571 211.595 183.571C213.145 183.571 214.414 184.072 215.404 185.075C216.4 186.071 216.898 187.308 216.898 188.786C216.898 190.264 216.4 191.504 215.404 192.507C214.414 193.509 213.145 194.01 211.595 194.01ZM209.467 191.042C210.033 191.608 210.743 191.891 211.595 191.891C212.448 191.891 213.161 191.608 213.734 191.042C214.307 190.469 214.594 189.717 214.594 188.786C214.594 187.855 214.307 187.106 213.734 186.54C213.161 185.973 212.448 185.69 211.595 185.69C210.743 185.69 210.033 185.973 209.467 186.54C208.9 187.106 208.617 187.855 208.617 188.786C208.617 189.717 208.9 190.469 209.467 191.042ZM222.453 194.01C221.404 194.01 220.578 193.672 219.972 192.995C219.373 192.311 219.074 191.423 219.074 190.329V183.844H221.369V189.889C221.369 190.534 221.557 191.045 221.935 191.423C222.313 191.8 222.785 191.989 223.351 191.989C223.911 191.989 224.38 191.8 224.757 191.423C225.141 191.038 225.333 190.527 225.333 189.889V183.844H227.638V193.727H225.49V192.243C225.236 192.783 224.855 193.213 224.347 193.532C223.839 193.851 223.208 194.01 222.453 194.01ZM232.724 193.727H230.429V183.844H232.568V185.329C232.789 184.821 233.176 184.401 233.73 184.069C234.29 183.737 234.944 183.571 235.693 183.571C236.708 183.571 237.512 183.893 238.105 184.538C238.697 185.182 238.993 186.052 238.993 187.145V193.727H236.689V187.692C236.689 187.054 236.497 186.543 236.112 186.159C235.735 185.775 235.266 185.583 234.706 185.583C234.153 185.583 233.684 185.775 233.3 186.159C232.916 186.543 232.724 187.054 232.724 187.692V193.727ZM246.061 194.01C245.143 194.01 244.31 193.779 243.561 193.317C242.819 192.855 242.236 192.227 241.813 191.432C241.397 190.632 241.188 189.749 241.188 188.786C241.188 187.829 241.403 186.95 241.833 186.149C242.269 185.348 242.865 184.72 243.62 184.264C244.375 183.802 245.208 183.571 246.12 183.571C246.849 183.571 247.49 183.698 248.044 183.952C248.597 184.199 249.024 184.518 249.323 184.909V179.723H251.628V193.727H249.479V192.311C248.711 193.444 247.572 194.01 246.061 194.01ZM246.481 191.891C247.315 191.891 248.021 191.605 248.6 191.032C249.186 190.453 249.479 189.704 249.479 188.786C249.479 187.868 249.186 187.122 248.6 186.55C248.021 185.977 247.315 185.69 246.481 185.69C245.628 185.69 244.915 185.977 244.343 186.55C243.77 187.116 243.483 187.861 243.483 188.786C243.483 189.71 243.77 190.459 244.343 191.032C244.922 191.605 245.635 191.891 246.481 191.891Z" fill="#303030"/>
<defs>
<filter id="filter0_dd_4896_5631" x="71.8164" y="0" width="156.363" height="164.938" filterUnits="userSpaceOnUse" color-interpolation-filters="sRGB">
<feFlood flood-opacity="0" result="BackgroundImageFix"/>
<feColorMatrix in="SourceAlpha" type="matrix" values="0 0 0 0 0 0 0 0 0 0 0 0 0 0 0 0 0 0 127 0" result="hardAlpha"/>
<feMorphology radius="4" operator="erode" in="SourceAlpha" result="effect1_dropShadow_4896_5631"/>
<feOffset dy="8"/>
<feGaussianBlur stdDeviation="4"/>
<feColorMatrix type="matrix" values="0 0 0 0 0.0627451 0 0 0 0 0.0941176 0 0 0 0 0.156863 0 0 0 0.03 0"/>
<feBlend mode="normal" in2="BackgroundImageFix" result="effect1_dropShadow_4896_5631"/>
<feColorMatrix in="SourceAlpha" type="matrix" values="0 0 0 0 0 0 0 0 0 0 0 0 0 0 0 0 0 0 127 0" result="hardAlpha"/>
<feMorphology radius="4" operator="erode" in="SourceAlpha" result="effect2_dropShadow_4896_5631"/>
<feOffset dy="20"/>
<feGaussianBlur stdDeviation="12"/>
<feColorMatrix type="matrix" values="0 0 0 0 0.0627451 0 0 0 0 0.0941176 0 0 0 0 0.156863 0 0 0 0.08 0"/>
<feBlend mode="normal" in2="effect1_dropShadow_4896_5631" result="effect2_dropShadow_4896_5631"/>
<feBlend mode="normal" in="SourceGraphic" in2="effect2_dropShadow_4896_5631" result="shape"/>
</filter>
<filter id="filter1_b_4896_5631" x="116.547" y="86.5454" width="66.9102" height="66.9092" filterUnits="userSpaceOnUse" color-interpolation-filters="sRGB">
<feFlood flood-opacity="0" result="BackgroundImageFix"/>
<feGaussianBlur in="BackgroundImageFix" stdDeviation="4"/>
<feComposite in2="SourceAlpha" operator="in" result="effect1_backgroundBlur_4896_5631"/>
<feBlend mode="normal" in="SourceGraphic" in2="effect1_backgroundBlur_4896_5631" result="shape"/>
</filter>
<linearGradient id="paint0_linear_4896_5631" x1="91.8164" y1="100.14" x2="114.794" y2="37.9104" gradientUnits="userSpaceOnUse">
<stop stop-color="#DEE1E8"/>
<stop offset="1" stop-color="#EFF1F5"/>
</linearGradient>
<linearGradient id="paint1_linear_4896_5631" x1="149.999" y1="51.4686" x2="215.604" y2="64.5301" gradientUnits="userSpaceOnUse">
<stop stop-color="#E4E7EC"/>
<stop offset="1" stop-color="#F2F4F7"/>
</linearGradient>
<clipPath id="clip0_4896_5631">
<rect width="25.4545" height="25.4545" fill="white" transform="translate(137.273 107.273)"/>
</clipPath>
</defs>
</svg>
